<?xml version="1.0" encoding="UTF-8"?>
<svg id="Layer_2" data-name="Layer 2" xmlns="http://www.w3.org/2000/svg" viewBox="0 0 231.07 55.17">
  <defs>
    <style>
      .cls-1 {
        fill: #fff;
        stroke: #232323;
        stroke-miterlimit: 10;
        stroke-width: 1.07px;
      }
    </style>
  </defs>
  <g id="Layer_2-2" data-name="Layer 2">
    <g>
      <g>
        <g>
          <path class="cls-1" d="m181.61,43.4c.36-.32.72-.65,1.06-.99,3.95-3.96,6.13-9.22,6.13-14.82,0-5.6-2.18-10.86-6.13-14.82-.34-.35-.7-.68-1.06-.99-3.21,4.45-5.1,9.91-5.1,15.81,0,5.9,1.89,11.36,5.1,15.81Z"/>
          <path class="cls-1" d="m194.89,27.59c0,8.1-3.56,15.36-9.19,20.32,4.76,4.19,10.99,6.73,17.83,6.73,14.92,0,27.01-12.11,27.01-27.05,0-14.94-12.09-27.05-27.01-27.05-6.83,0-13.07,2.54-17.83,6.73,5.63,4.96,9.19,12.22,9.19,20.32Z"/>
        </g>
        <path class="cls-1" d="m167.87,54.63c6.83,0,13.07-2.54,17.83-6.73-1.53-1.34-2.9-2.86-4.09-4.51-3.81,3.33-8.63,5.14-13.74,5.14-5.59,0-10.85-2.18-14.8-6.14-3.95-3.96-6.13-9.22-6.13-14.82,0-5.6,2.18-10.86,6.13-14.82,3.95-3.96,9.21-6.14,14.8-6.14,5.1,0,9.93,1.82,13.74,5.14,1.19-1.65,2.56-3.17,4.09-4.51-4.76-4.19-10.99-6.73-17.83-6.73-14.92,0-27.01,12.11-27.01,27.05,0,14.94,12.09,27.05,27.01,27.05Z"/>
      </g>
      <g>
        <g>
          <path class="cls-1" d="m111.45,43.4c.36-.32.72-.65,1.06-.99,3.95-3.96,6.13-9.22,6.13-14.82,0-5.6-2.18-10.86-6.13-14.82-.34-.35-.7-.68-1.06-.99-3.21,4.45-5.1,9.91-5.1,15.81,0,5.9,1.89,11.36,5.1,15.81Z"/>
          <path class="cls-1" d="m124.72,27.59c0,8.1-3.56,15.36-9.19,20.32,4.76,4.19,10.99,6.73,17.83,6.73,14.92,0,27.01-12.11,27.01-27.05,0-14.94-12.09-27.05-27.01-27.05-6.83,0-13.07,2.54-17.83,6.73,5.63,4.96,9.19,12.22,9.19,20.32Z"/>
        </g>
        <path class="cls-1" d="m97.71,54.63c6.83,0,13.07-2.54,17.83-6.73-1.53-1.34-2.9-2.86-4.09-4.51-3.81,3.33-8.63,5.14-13.74,5.14-5.59,0-10.85-2.18-14.8-6.14-3.95-3.96-6.13-9.22-6.13-14.82,0-5.6,2.18-10.86,6.13-14.82,3.95-3.96,9.21-6.14,14.8-6.14,5.1,0,9.93,1.82,13.74,5.14,1.19-1.65,2.56-3.17,4.09-4.51-4.76-4.19-10.99-6.73-17.83-6.73-14.92,0-27.01,12.11-27.01,27.05,0,14.94,12.09,27.05,27.01,27.05Z"/>
      </g>
      <g>
        <g>
          <path class="cls-1" d="m41.28,43.4c.36-.32.72-.65,1.06-.99,3.95-3.96,6.13-9.22,6.13-14.82,0-5.6-2.18-10.86-6.13-14.82-.34-.35-.7-.68-1.06-.99-3.21,4.45-5.1,9.91-5.1,15.81,0,5.9,1.89,11.36,5.1,15.81Z"/>
          <path class="cls-1" d="m54.56,27.59c0,8.1-3.56,15.36-9.19,20.32,4.76,4.19,10.99,6.73,17.83,6.73,14.92,0,27.01-12.11,27.01-27.05,0-14.94-12.09-27.05-27.01-27.05-6.83,0-13.07,2.54-17.83,6.73,5.63,4.96,9.19,12.22,9.19,20.32Z"/>
        </g>
        <path class="cls-1" d="m27.55,54.63c6.83,0,13.07-2.54,17.83-6.73-1.53-1.34-2.9-2.86-4.09-4.51-3.81,3.33-8.63,5.14-13.74,5.14-5.59,0-10.85-2.18-14.8-6.14-3.95-3.96-6.13-9.22-6.13-14.82,0-5.6,2.18-10.86,6.13-14.82,3.95-3.96,9.21-6.14,14.8-6.14,5.1,0,9.93,1.82,13.74,5.14,1.19-1.65,2.56-3.17,4.09-4.51C40.62,3.08,34.38.54,27.55.54c-14.92,0-27.01,12.11-27.01,27.05,0,14.94,12.09,27.05,27.01,27.05Z"/>
      </g>
    </g>
  </g>
</svg>