<svg xmlns="http://www.w3.org/2000/svg" viewBox="0 0 29.69 1481.12"><defs><style>.cls-1{fill:#fff;stroke:#000;stroke-miterlimit:10;stroke-width:0.75px;}</style></defs><title>pAsset 2</title><g id="Layer_2" data-name="Layer 2"><g id="Layer_2-2" data-name="Layer 2"><g id="Layer_2-2-2" data-name="Layer 2-2"><path class="cls-1" d="M-455.57-433.33l-.53-.57a11.12,11.12,0,0,0-7.93-3.28A11.12,11.12,0,0,0-472-433.9c-.18.18-.36.37-.53.57A14.39,14.39,0,0,0-464-430.6,14.39,14.39,0,0,0-455.57-433.33Z" transform="translate(478.88 459.88)"/><path class="cls-1" d="M-464-440.44a14.42,14.42,0,0,1,10.87,4.92,14.39,14.39,0,0,0,3.6-9.54A14.46,14.46,0,0,0-464-459.51a14.46,14.46,0,0,0-14.47,14.45,14.39,14.39,0,0,0,3.6,9.54A14.46,14.46,0,0,1-464-440.44Z" transform="translate(478.88 459.88)"/><path class="cls-1" d="M-449.56-426a14.39,14.39,0,0,0-3.6-9.54,14.72,14.72,0,0,1-2.41,2.19,11.11,11.11,0,0,1,2.75,7.35,11.16,11.16,0,0,1-3.28,7.92,11.11,11.11,0,0,1-7.93,3.28,11.12,11.12,0,0,1-7.93-3.28,11.12,11.12,0,0,1-3.28-7.92,11.11,11.11,0,0,1,2.75-7.35,14.72,14.72,0,0,1-2.41-2.19,14.39,14.39,0,0,0-3.6,9.54A14.46,14.46,0,0,0-464-411.54,14.46,14.46,0,0,0-449.56-426Z" transform="translate(478.88 459.88)"/><path class="cls-1" d="M-455.57-395.13l-.53-.57A11.12,11.12,0,0,0-464-399,11.12,11.12,0,0,0-472-395.7c-.18.18-.36.37-.53.57A14.39,14.39,0,0,0-464-392.4,14.39,14.39,0,0,0-455.57-395.13Z" transform="translate(478.88 459.88)"/><path class="cls-1" d="M-464-402.23a14.42,14.42,0,0,1,10.87,4.92,14.39,14.39,0,0,0,3.6-9.54A14.46,14.46,0,0,0-464-421.3a14.46,14.46,0,0,0-14.47,14.45,14.39,14.39,0,0,0,3.6,9.54A14.46,14.46,0,0,1-464-402.23Z" transform="translate(478.88 459.88)"/><path class="cls-1" d="M-449.56-387.78a14.39,14.39,0,0,0-3.6-9.54,14.72,14.72,0,0,1-2.41,2.19,11.11,11.11,0,0,1,2.75,7.35,11.16,11.16,0,0,1-3.28,7.92,11.12,11.12,0,0,1-7.93,3.28,11.12,11.12,0,0,1-7.93-3.28,11.12,11.12,0,0,1-3.28-7.92,11.11,11.11,0,0,1,2.75-7.35,14.72,14.72,0,0,1-2.41-2.19,14.39,14.39,0,0,0-3.6,9.54A14.46,14.46,0,0,0-464-373.33,14.46,14.46,0,0,0-449.56-387.78Z" transform="translate(478.88 459.88)"/><path class="cls-1" d="M-455.57-357.58l-.53-.57a11.12,11.12,0,0,0-7.93-3.28,11.12,11.12,0,0,0-7.93,3.28c-.18.18-.36.37-.53.57a14.39,14.39,0,0,0,8.46,2.73A14.39,14.39,0,0,0-455.57-357.58Z" transform="translate(478.88 459.88)"/><path class="cls-1" d="M-464-364.69a14.42,14.42,0,0,1,10.87,4.92,14.39,14.39,0,0,0,3.6-9.54A14.46,14.46,0,0,0-464-383.76a14.46,14.46,0,0,0-14.47,14.45,14.39,14.39,0,0,0,3.6,9.54A14.46,14.46,0,0,1-464-364.69Z" transform="translate(478.88 459.88)"/><path class="cls-1" d="M-449.56-350.24a14.39,14.39,0,0,0-3.6-9.54,14.72,14.72,0,0,1-2.41,2.19,11.11,11.11,0,0,1,2.75,7.35,11.16,11.16,0,0,1-3.28,7.92A11.11,11.11,0,0,1-464-339a11.12,11.12,0,0,1-7.93-3.28,11.12,11.12,0,0,1-3.28-7.92,11.11,11.11,0,0,1,2.75-7.35,14.72,14.72,0,0,1-2.41-2.19,14.39,14.39,0,0,0-3.6,9.54A14.46,14.46,0,0,0-464-335.79,14.46,14.46,0,0,0-449.56-350.24Z" transform="translate(478.88 459.88)"/><path class="cls-1" d="M-455.57-320l-.53-.57a11.12,11.12,0,0,0-7.93-3.28,11.12,11.12,0,0,0-7.93,3.28c-.18.18-.36.37-.53.57a14.39,14.39,0,0,0,8.46,2.73A14.39,14.39,0,0,0-455.57-320Z" transform="translate(478.88 459.88)"/><path class="cls-1" d="M-464-327.15a14.42,14.42,0,0,1,10.87,4.92,14.39,14.39,0,0,0,3.6-9.54A14.46,14.46,0,0,0-464-346.22a14.46,14.46,0,0,0-14.47,14.45,14.39,14.39,0,0,0,3.6,9.54A14.46,14.46,0,0,1-464-327.15Z" transform="translate(478.88 459.88)"/><path class="cls-1" d="M-449.56-312.7a14.39,14.39,0,0,0-3.6-9.54,14.72,14.72,0,0,1-2.41,2.19,11.11,11.11,0,0,1,2.75,7.35,11.16,11.16,0,0,1-3.28,7.92A11.12,11.12,0,0,1-464-301.5a11.12,11.12,0,0,1-7.93-3.28,11.12,11.12,0,0,1-3.28-7.92,11.11,11.11,0,0,1,2.75-7.35,14.72,14.72,0,0,1-2.41-2.19,14.39,14.39,0,0,0-3.6,9.54A14.46,14.46,0,0,0-464-298.25,14.46,14.46,0,0,0-449.56-312.7Z" transform="translate(478.88 459.88)"/><path class="cls-1" d="M-455.57-282.5l-.53-.57a11.12,11.12,0,0,0-7.93-3.28,11.12,11.12,0,0,0-7.93,3.28c-.18.18-.36.37-.53.57a14.39,14.39,0,0,0,8.46,2.73A14.39,14.39,0,0,0-455.57-282.5Z" transform="translate(478.88 459.88)"/><path class="cls-1" d="M-464-289.61a14.42,14.42,0,0,1,10.87,4.92,14.39,14.39,0,0,0,3.6-9.54A14.46,14.46,0,0,0-464-308.68a14.46,14.46,0,0,0-14.47,14.45,14.39,14.39,0,0,0,3.6,9.54A14.46,14.46,0,0,1-464-289.61Z" transform="translate(478.88 459.88)"/><path class="cls-1" d="M-449.56-275.15a14.39,14.39,0,0,0-3.6-9.54,14.72,14.72,0,0,1-2.41,2.19,11.11,11.11,0,0,1,2.75,7.35,11.16,11.16,0,0,1-3.28,7.92,11.12,11.12,0,0,1-7.93,3.28,11.12,11.12,0,0,1-7.93-3.28,11.12,11.12,0,0,1-3.28-7.92,11.11,11.11,0,0,1,2.75-7.35,14.72,14.72,0,0,1-2.41-2.19,14.39,14.39,0,0,0-3.6,9.54A14.46,14.46,0,0,0-464-260.7,14.46,14.46,0,0,0-449.56-275.15Z" transform="translate(478.88 459.88)"/><path class="cls-1" d="M-455.57-245l-.53-.57a11.12,11.12,0,0,0-7.93-3.28,11.12,11.12,0,0,0-7.93,3.28c-.18.18-.36.37-.53.57a14.39,14.39,0,0,0,8.46,2.73A14.39,14.39,0,0,0-455.57-245Z" transform="translate(478.88 459.88)"/><path class="cls-1" d="M-464-252.07a14.42,14.42,0,0,1,10.87,4.92,14.39,14.39,0,0,0,3.6-9.54A14.46,14.46,0,0,0-464-271.14a14.46,14.46,0,0,0-14.47,14.45,14.39,14.39,0,0,0,3.6,9.54A14.46,14.46,0,0,1-464-252.07Z" transform="translate(478.88 459.88)"/><path class="cls-1" d="M-449.56-237.61a14.39,14.39,0,0,0-3.6-9.54,14.72,14.72,0,0,1-2.41,2.19,11.11,11.11,0,0,1,2.75,7.35,11.16,11.16,0,0,1-3.28,7.92,11.12,11.12,0,0,1-7.93,3.28,11.12,11.12,0,0,1-7.93-3.28,11.12,11.12,0,0,1-3.28-7.92,11.11,11.11,0,0,1,2.75-7.35,14.72,14.72,0,0,1-2.41-2.19,14.39,14.39,0,0,0-3.6,9.54A14.46,14.46,0,0,0-464-223.16,14.46,14.46,0,0,0-449.56-237.61Z" transform="translate(478.88 459.88)"/><path class="cls-1" d="M-455.57-207.42l-.53-.57a11.12,11.12,0,0,0-7.93-3.28A11.12,11.12,0,0,0-472-208c-.18.18-.36.37-.53.57a14.39,14.39,0,0,0,8.46,2.73A14.39,14.39,0,0,0-455.57-207.42Z" transform="translate(478.88 459.88)"/><path class="cls-1" d="M-464-214.53a14.42,14.42,0,0,1,10.87,4.92,14.39,14.39,0,0,0,3.6-9.54A14.46,14.46,0,0,0-464-233.6a14.46,14.46,0,0,0-14.47,14.45,14.39,14.39,0,0,0,3.6,9.54A14.46,14.46,0,0,1-464-214.53Z" transform="translate(478.88 459.88)"/><path class="cls-1" d="M-449.56-200.07a14.39,14.39,0,0,0-3.6-9.54,14.72,14.72,0,0,1-2.41,2.19,11.11,11.11,0,0,1,2.75,7.35,11.16,11.16,0,0,1-3.28,7.92,11.12,11.12,0,0,1-7.93,3.28,11.12,11.12,0,0,1-7.93-3.28,11.12,11.12,0,0,1-3.28-7.92,11.11,11.11,0,0,1,2.75-7.35,14.72,14.72,0,0,1-2.41-2.19,14.39,14.39,0,0,0-3.6,9.54A14.46,14.46,0,0,0-464-185.62,14.46,14.46,0,0,0-449.56-200.07Z" transform="translate(478.88 459.88)"/><path class="cls-1" d="M-455.57-169.46l-.53-.57a11.12,11.12,0,0,0-7.93-3.28A11.12,11.12,0,0,0-472-170c-.18.18-.36.37-.53.57a14.39,14.39,0,0,0,8.46,2.73A14.39,14.39,0,0,0-455.57-169.46Z" transform="translate(478.88 459.88)"/><path class="cls-1" d="M-464-176.57a14.42,14.42,0,0,1,10.87,4.92,14.39,14.39,0,0,0,3.6-9.54A14.46,14.46,0,0,0-464-195.64a14.46,14.46,0,0,0-14.47,14.45,14.39,14.39,0,0,0,3.6,9.54A14.46,14.46,0,0,1-464-176.57Z" transform="translate(478.88 459.88)"/><path class="cls-1" d="M-449.56-162.12a14.39,14.39,0,0,0-3.6-9.54,14.72,14.72,0,0,1-2.41,2.19,11.11,11.11,0,0,1,2.75,7.35,11.16,11.16,0,0,1-3.28,7.92,11.12,11.12,0,0,1-7.93,3.28A11.12,11.12,0,0,1-472-154.2a11.12,11.12,0,0,1-3.28-7.92,11.11,11.11,0,0,1,2.75-7.35,14.72,14.72,0,0,1-2.41-2.19,14.39,14.39,0,0,0-3.6,9.54A14.46,14.46,0,0,0-464-147.67,14.46,14.46,0,0,0-449.56-162.12Z" transform="translate(478.88 459.88)"/><path class="cls-1" d="M-455.57-131.26l-.53-.57a11.12,11.12,0,0,0-7.93-3.28,11.12,11.12,0,0,0-7.93,3.28c-.18.18-.36.37-.53.57a14.39,14.39,0,0,0,8.46,2.73A14.39,14.39,0,0,0-455.57-131.26Z" transform="translate(478.88 459.88)"/><path class="cls-1" d="M-464-138.36a14.42,14.42,0,0,1,10.87,4.92,14.39,14.39,0,0,0,3.6-9.54A14.46,14.46,0,0,0-464-157.43,14.46,14.46,0,0,0-478.5-143a14.39,14.39,0,0,0,3.6,9.54A14.46,14.46,0,0,1-464-138.36Z" transform="translate(478.88 459.88)"/><path class="cls-1" d="M-449.56-123.91a14.39,14.39,0,0,0-3.6-9.54,14.72,14.72,0,0,1-2.41,2.19,11.11,11.11,0,0,1,2.75,7.35A11.16,11.16,0,0,1-456.1-116a11.11,11.11,0,0,1-7.93,3.28A11.12,11.12,0,0,1-472-116a11.12,11.12,0,0,1-3.28-7.92,11.11,11.11,0,0,1,2.75-7.35,14.72,14.72,0,0,1-2.41-2.19,14.39,14.39,0,0,0-3.6,9.54A14.46,14.46,0,0,0-464-109.46,14.46,14.46,0,0,0-449.56-123.91Z" transform="translate(478.88 459.88)"/><path class="cls-1" d="M-455.57-93.71l-.53-.57A11.12,11.12,0,0,0-464-97.56,11.12,11.12,0,0,0-472-94.28c-.18.18-.36.37-.53.57A14.39,14.39,0,0,0-464-91,14.39,14.39,0,0,0-455.57-93.71Z" transform="translate(478.88 459.88)"/><path class="cls-1" d="M-464-100.82a14.42,14.42,0,0,1,10.87,4.92,14.39,14.39,0,0,0,3.6-9.54A14.46,14.46,0,0,0-464-119.89a14.46,14.46,0,0,0-14.47,14.45,14.39,14.39,0,0,0,3.6,9.54A14.46,14.46,0,0,1-464-100.82Z" transform="translate(478.88 459.88)"/><path class="cls-1" d="M-449.56-86.37a14.39,14.39,0,0,0-3.6-9.54,14.72,14.72,0,0,1-2.41,2.19,11.11,11.11,0,0,1,2.75,7.35,11.16,11.16,0,0,1-3.28,7.92A11.11,11.11,0,0,1-464-75.17,11.12,11.12,0,0,1-472-78.45a11.12,11.12,0,0,1-3.28-7.92,11.11,11.11,0,0,1,2.75-7.35,14.72,14.72,0,0,1-2.41-2.19,14.39,14.39,0,0,0-3.6,9.54A14.46,14.46,0,0,0-464-71.92,14.46,14.46,0,0,0-449.56-86.37Z" transform="translate(478.88 459.88)"/><path class="cls-1" d="M-455.57-56.17l-.53-.57A11.12,11.12,0,0,0-464-60,11.12,11.12,0,0,0-472-56.74c-.18.18-.36.37-.53.57A14.39,14.39,0,0,0-464-53.44,14.39,14.39,0,0,0-455.57-56.17Z" transform="translate(478.88 459.88)"/><path class="cls-1" d="M-464-63.28a14.42,14.42,0,0,1,10.87,4.92,14.39,14.39,0,0,0,3.6-9.54A14.46,14.46,0,0,0-464-82.35,14.46,14.46,0,0,0-478.5-67.9a14.39,14.39,0,0,0,3.6,9.54A14.46,14.46,0,0,1-464-63.28Z" transform="translate(478.88 459.88)"/><path class="cls-1" d="M-449.56-48.82a14.39,14.39,0,0,0-3.6-9.54,14.72,14.72,0,0,1-2.41,2.19,11.11,11.11,0,0,1,2.75,7.35,11.16,11.16,0,0,1-3.28,7.92A11.12,11.12,0,0,1-464-37.62,11.12,11.12,0,0,1-472-40.9a11.12,11.12,0,0,1-3.28-7.92,11.11,11.11,0,0,1,2.75-7.35,14.72,14.72,0,0,1-2.41-2.19,14.39,14.39,0,0,0-3.6,9.54A14.46,14.46,0,0,0-464-34.37,14.46,14.46,0,0,0-449.56-48.82Z" transform="translate(478.88 459.88)"/><path class="cls-1" d="M-455.57-18.63l-.53-.57A11.12,11.12,0,0,0-464-22.48,11.12,11.12,0,0,0-472-19.2c-.18.18-.36.37-.53.57A14.39,14.39,0,0,0-464-15.9,14.39,14.39,0,0,0-455.57-18.63Z" transform="translate(478.88 459.88)"/><path class="cls-1" d="M-464-25.74a14.42,14.42,0,0,1,10.87,4.92,14.39,14.39,0,0,0,3.6-9.54A14.46,14.46,0,0,0-464-44.81,14.46,14.46,0,0,0-478.5-30.36a14.39,14.39,0,0,0,3.6,9.54A14.46,14.46,0,0,1-464-25.74Z" transform="translate(478.88 459.88)"/><path class="cls-1" d="M-449.56-11.28a14.39,14.39,0,0,0-3.6-9.54,14.72,14.72,0,0,1-2.41,2.19,11.11,11.11,0,0,1,2.75,7.35,11.16,11.16,0,0,1-3.28,7.92A11.12,11.12,0,0,1-464-.08,11.12,11.12,0,0,1-472-3.36a11.12,11.12,0,0,1-3.28-7.92,11.11,11.11,0,0,1,2.75-7.35,14.72,14.72,0,0,1-2.41-2.19,14.39,14.39,0,0,0-3.6,9.54A14.46,14.46,0,0,0-464,3.17,14.46,14.46,0,0,0-449.56-11.28Z" transform="translate(478.88 459.88)"/><path class="cls-1" d="M-455.57,18.91l-.53-.57A11.12,11.12,0,0,0-464,15.06,11.12,11.12,0,0,0-472,18.34c-.18.18-.36.37-.53.57A14.39,14.39,0,0,0-464,21.64,14.39,14.39,0,0,0-455.57,18.91Z" transform="translate(478.88 459.88)"/><path class="cls-1" d="M-464,11.8a14.42,14.42,0,0,1,10.87,4.92,14.39,14.39,0,0,0,3.6-9.54A14.46,14.46,0,0,0-464-7.27,14.46,14.46,0,0,0-478.5,7.18a14.39,14.39,0,0,0,3.6,9.54A14.46,14.46,0,0,1-464,11.8Z" transform="translate(478.88 459.88)"/><path class="cls-1" d="M-449.56,26.26a14.39,14.39,0,0,0-3.6-9.54,14.72,14.72,0,0,1-2.41,2.19,11.11,11.11,0,0,1,2.75,7.35,11.16,11.16,0,0,1-3.28,7.92A11.12,11.12,0,0,1-464,37.46,11.12,11.12,0,0,1-472,34.18a11.12,11.12,0,0,1-3.28-7.92,11.11,11.11,0,0,1,2.75-7.35,14.72,14.72,0,0,1-2.41-2.19,14.39,14.39,0,0,0-3.6,9.54A14.46,14.46,0,0,0-464,40.71,14.46,14.46,0,0,0-449.56,26.26Z" transform="translate(478.88 459.88)"/><path class="cls-1" d="M-455.57,56.45l-.53-.57A11.12,11.12,0,0,0-464,52.6,11.12,11.12,0,0,0-472,55.88c-.18.18-.36.37-.53.57A14.39,14.39,0,0,0-464,59.18,14.39,14.39,0,0,0-455.57,56.45Z" transform="translate(478.88 459.88)"/><path class="cls-1" d="M-464,49.34a14.42,14.42,0,0,1,10.87,4.92,14.39,14.39,0,0,0,3.6-9.54A14.46,14.46,0,0,0-464,30.27,14.46,14.46,0,0,0-478.5,44.72a14.39,14.39,0,0,0,3.6,9.54A14.46,14.46,0,0,1-464,49.34Z" transform="translate(478.88 459.88)"/><path class="cls-1" d="M-449.56,63.8a14.39,14.39,0,0,0-3.6-9.54,14.72,14.72,0,0,1-2.41,2.19,11.11,11.11,0,0,1,2.75,7.35,11.16,11.16,0,0,1-3.28,7.92A11.12,11.12,0,0,1-464,75,11.12,11.12,0,0,1-472,71.72a11.12,11.12,0,0,1-3.28-7.92,11.11,11.11,0,0,1,2.75-7.35,14.72,14.72,0,0,1-2.41-2.19,14.39,14.39,0,0,0-3.6,9.54A14.46,14.46,0,0,0-464,78.25,14.46,14.46,0,0,0-449.56,63.8Z" transform="translate(478.88 459.88)"/><path class="cls-1" d="M-455.57,94.41l-.53-.57A11.12,11.12,0,0,0-464,90.56,11.12,11.12,0,0,0-472,93.84c-.18.18-.36.37-.53.57A14.39,14.39,0,0,0-464,97.14,14.39,14.39,0,0,0-455.57,94.41Z" transform="translate(478.88 459.88)"/><path class="cls-1" d="M-464,87.3a14.42,14.42,0,0,1,10.87,4.92,14.39,14.39,0,0,0,3.6-9.54A14.46,14.46,0,0,0-464,68.23,14.46,14.46,0,0,0-478.5,82.68a14.39,14.39,0,0,0,3.6,9.54A14.46,14.46,0,0,1-464,87.3Z" transform="translate(478.88 459.88)"/><path class="cls-1" d="M-449.56,101.76a14.39,14.39,0,0,0-3.6-9.54,14.72,14.72,0,0,1-2.41,2.19,11.11,11.11,0,0,1,2.75,7.35,11.16,11.16,0,0,1-3.28,7.92A11.12,11.12,0,0,1-464,113a11.12,11.12,0,0,1-7.93-3.28,11.12,11.12,0,0,1-3.28-7.92,11.11,11.11,0,0,1,2.75-7.35,14.72,14.72,0,0,1-2.41-2.19,14.39,14.39,0,0,0-3.6,9.54A14.46,14.46,0,0,0-464,116.21,14.46,14.46,0,0,0-449.56,101.76Z" transform="translate(478.88 459.88)"/><path class="cls-1" d="M-455.57,132.62l-.53-.57a11.12,11.12,0,0,0-7.93-3.28,11.12,11.12,0,0,0-7.93,3.28c-.18.18-.36.37-.53.57a14.39,14.39,0,0,0,8.46,2.73A14.39,14.39,0,0,0-455.57,132.62Z" transform="translate(478.88 459.88)"/><path class="cls-1" d="M-464,125.51a14.42,14.42,0,0,1,10.87,4.92,14.39,14.39,0,0,0,3.6-9.54A14.46,14.46,0,0,0-464,106.44a14.46,14.46,0,0,0-14.47,14.45,14.39,14.39,0,0,0,3.6,9.54A14.46,14.46,0,0,1-464,125.51Z" transform="translate(478.88 459.88)"/><path class="cls-1" d="M-449.56,140a14.39,14.39,0,0,0-3.6-9.54,14.72,14.72,0,0,1-2.41,2.19,11.11,11.11,0,0,1,2.75,7.35,11.16,11.16,0,0,1-3.28,7.92,11.11,11.11,0,0,1-7.93,3.28,11.12,11.12,0,0,1-7.93-3.28,11.12,11.12,0,0,1-3.28-7.92,11.11,11.11,0,0,1,2.75-7.35,14.72,14.72,0,0,1-2.41-2.19,14.39,14.39,0,0,0-3.6,9.54A14.46,14.46,0,0,0-464,154.41,14.46,14.46,0,0,0-449.56,140Z" transform="translate(478.88 459.88)"/><path class="cls-1" d="M-455.57,170.16l-.53-.57a11.12,11.12,0,0,0-7.93-3.28,11.12,11.12,0,0,0-7.93,3.28c-.18.18-.36.37-.53.57a14.39,14.39,0,0,0,8.46,2.73A14.39,14.39,0,0,0-455.57,170.16Z" transform="translate(478.88 459.88)"/><path class="cls-1" d="M-464,163.05A14.42,14.42,0,0,1-453.16,168a14.39,14.39,0,0,0,3.6-9.54A14.46,14.46,0,0,0-464,144a14.46,14.46,0,0,0-14.47,14.45,14.39,14.39,0,0,0,3.6,9.54A14.46,14.46,0,0,1-464,163.05Z" transform="translate(478.88 459.88)"/><path class="cls-1" d="M-449.56,177.5a14.39,14.39,0,0,0-3.6-9.54,14.72,14.72,0,0,1-2.41,2.19,11.11,11.11,0,0,1,2.75,7.35,11.16,11.16,0,0,1-3.28,7.92A11.12,11.12,0,0,1-464,188.7a11.12,11.12,0,0,1-7.93-3.28,11.12,11.12,0,0,1-3.28-7.92,11.11,11.11,0,0,1,2.75-7.35A14.72,14.72,0,0,1-474.9,168a14.39,14.39,0,0,0-3.6,9.54A14.46,14.46,0,0,0-464,192,14.46,14.46,0,0,0-449.56,177.5Z" transform="translate(478.88 459.88)"/><path class="cls-1" d="M-455.57,207.7l-.53-.57a11.12,11.12,0,0,0-7.93-3.28,11.12,11.12,0,0,0-7.93,3.28c-.18.18-.36.37-.53.57a14.39,14.39,0,0,0,8.46,2.73A14.39,14.39,0,0,0-455.57,207.7Z" transform="translate(478.88 459.88)"/><path class="cls-1" d="M-464,200.59a14.42,14.42,0,0,1,10.87,4.92,14.39,14.39,0,0,0,3.6-9.54A14.46,14.46,0,0,0-464,181.52,14.46,14.46,0,0,0-478.5,196a14.39,14.39,0,0,0,3.6,9.54A14.46,14.46,0,0,1-464,200.59Z" transform="translate(478.88 459.88)"/><path class="cls-1" d="M-449.56,215.05a14.39,14.39,0,0,0-3.6-9.54,14.72,14.72,0,0,1-2.41,2.19,11.11,11.11,0,0,1,2.75,7.35A11.16,11.16,0,0,1-456.1,223a11.12,11.12,0,0,1-7.93,3.28A11.12,11.12,0,0,1-472,223a11.12,11.12,0,0,1-3.28-7.92,11.11,11.11,0,0,1,2.75-7.35,14.72,14.72,0,0,1-2.41-2.19,14.39,14.39,0,0,0-3.6,9.54A14.46,14.46,0,0,0-464,229.5,14.46,14.46,0,0,0-449.56,215.05Z" transform="translate(478.88 459.88)"/><path class="cls-1" d="M-455.57,245.24l-.53-.57a11.12,11.12,0,0,0-7.93-3.28,11.12,11.12,0,0,0-7.93,3.28c-.18.18-.36.37-.53.57A14.39,14.39,0,0,0-464,248,14.39,14.39,0,0,0-455.57,245.24Z" transform="translate(478.88 459.88)"/><path class="cls-1" d="M-464,238.13a14.42,14.42,0,0,1,10.87,4.92,14.39,14.39,0,0,0,3.6-9.54A14.46,14.46,0,0,0-464,219.06a14.46,14.46,0,0,0-14.47,14.45,14.39,14.39,0,0,0,3.6,9.54A14.46,14.46,0,0,1-464,238.13Z" transform="translate(478.88 459.88)"/><path class="cls-1" d="M-449.56,252.59a14.39,14.39,0,0,0-3.6-9.54,14.72,14.72,0,0,1-2.41,2.19,11.11,11.11,0,0,1,2.75,7.35,11.16,11.16,0,0,1-3.28,7.92,11.12,11.12,0,0,1-7.93,3.28,11.12,11.12,0,0,1-7.93-3.28,11.12,11.12,0,0,1-3.28-7.92,11.11,11.11,0,0,1,2.75-7.35,14.72,14.72,0,0,1-2.41-2.19,14.39,14.39,0,0,0-3.6,9.54A14.46,14.46,0,0,0-464,267,14.46,14.46,0,0,0-449.56,252.59Z" transform="translate(478.88 459.88)"/><path class="cls-1" d="M-455.57,282.78l-.53-.57a11.12,11.12,0,0,0-7.93-3.28,11.12,11.12,0,0,0-7.93,3.28c-.18.18-.36.37-.53.57a14.39,14.39,0,0,0,8.46,2.73A14.39,14.39,0,0,0-455.57,282.78Z" transform="translate(478.88 459.88)"/><path class="cls-1" d="M-464,275.67a14.42,14.42,0,0,1,10.87,4.92,14.39,14.39,0,0,0,3.6-9.54A14.46,14.46,0,0,0-464,256.6a14.46,14.46,0,0,0-14.47,14.45,14.39,14.39,0,0,0,3.6,9.54A14.46,14.46,0,0,1-464,275.67Z" transform="translate(478.88 459.88)"/><path class="cls-1" d="M-449.56,290.13a14.39,14.39,0,0,0-3.6-9.54,14.72,14.72,0,0,1-2.41,2.19,11.11,11.11,0,0,1,2.75,7.35,11.16,11.16,0,0,1-3.28,7.92,11.12,11.12,0,0,1-7.93,3.28,11.12,11.12,0,0,1-7.93-3.28,11.12,11.12,0,0,1-3.28-7.92,11.11,11.11,0,0,1,2.75-7.35,14.72,14.72,0,0,1-2.41-2.19,14.39,14.39,0,0,0-3.6,9.54A14.46,14.46,0,0,0-464,304.58,14.46,14.46,0,0,0-449.56,290.13Z" transform="translate(478.88 459.88)"/><path class="cls-1" d="M-455.57,320.32l-.53-.57a11.12,11.12,0,0,0-7.93-3.28,11.12,11.12,0,0,0-7.93,3.28c-.18.18-.36.37-.53.57a14.39,14.39,0,0,0,8.46,2.73A14.39,14.39,0,0,0-455.57,320.32Z" transform="translate(478.88 459.88)"/><path class="cls-1" d="M-464,313.21a14.42,14.42,0,0,1,10.87,4.92,14.39,14.39,0,0,0,3.6-9.54A14.46,14.46,0,0,0-464,294.14a14.46,14.46,0,0,0-14.47,14.45,14.39,14.39,0,0,0,3.6,9.54A14.46,14.46,0,0,1-464,313.21Z" transform="translate(478.88 459.88)"/><path class="cls-1" d="M-449.56,327.67a14.39,14.39,0,0,0-3.6-9.54,14.72,14.72,0,0,1-2.41,2.19,11.11,11.11,0,0,1,2.75,7.35,11.16,11.16,0,0,1-3.28,7.92,11.12,11.12,0,0,1-7.93,3.28,11.12,11.12,0,0,1-7.93-3.28,11.12,11.12,0,0,1-3.28-7.92,11.11,11.11,0,0,1,2.75-7.35,14.72,14.72,0,0,1-2.41-2.19,14.39,14.39,0,0,0-3.6,9.54A14.46,14.46,0,0,0-464,342.12,14.46,14.46,0,0,0-449.56,327.67Z" transform="translate(478.88 459.88)"/><path class="cls-1" d="M-455.57,358.7l-.53-.57a11.12,11.12,0,0,0-7.93-3.28,11.12,11.12,0,0,0-7.93,3.28c-.18.18-.36.37-.53.57a14.39,14.39,0,0,0,8.46,2.73A14.39,14.39,0,0,0-455.57,358.7Z" transform="translate(478.88 459.88)"/><path class="cls-1" d="M-464,351.6a14.42,14.42,0,0,1,10.87,4.92,14.39,14.39,0,0,0,3.6-9.54A14.46,14.46,0,0,0-464,332.53,14.46,14.46,0,0,0-478.5,347a14.39,14.39,0,0,0,3.6,9.54A14.46,14.46,0,0,1-464,351.6Z" transform="translate(478.88 459.88)"/><path class="cls-1" d="M-449.56,366.05a14.39,14.39,0,0,0-3.6-9.54,14.72,14.72,0,0,1-2.41,2.19,11.11,11.11,0,0,1,2.75,7.35A11.16,11.16,0,0,1-456.1,374a11.12,11.12,0,0,1-7.93,3.28A11.12,11.12,0,0,1-472,374a11.12,11.12,0,0,1-3.28-7.92,11.11,11.11,0,0,1,2.75-7.35,14.72,14.72,0,0,1-2.41-2.19,14.39,14.39,0,0,0-3.6,9.54A14.46,14.46,0,0,0-464,380.5,14.46,14.46,0,0,0-449.56,366.05Z" transform="translate(478.88 459.88)"/><path class="cls-1" d="M-455.57,396.24l-.53-.57a11.12,11.12,0,0,0-7.93-3.28,11.12,11.12,0,0,0-7.93,3.28c-.18.18-.36.37-.53.57A14.39,14.39,0,0,0-464,399,14.39,14.39,0,0,0-455.57,396.24Z" transform="translate(478.88 459.88)"/><path class="cls-1" d="M-464,389.14a14.42,14.42,0,0,1,10.87,4.92,14.39,14.39,0,0,0,3.6-9.54A14.46,14.46,0,0,0-464,370.07a14.46,14.46,0,0,0-14.47,14.45,14.39,14.39,0,0,0,3.6,9.54A14.46,14.46,0,0,1-464,389.14Z" transform="translate(478.88 459.88)"/><path class="cls-1" d="M-449.56,403.59a14.39,14.39,0,0,0-3.6-9.54,14.72,14.72,0,0,1-2.41,2.19,11.11,11.11,0,0,1,2.75,7.35,11.16,11.16,0,0,1-3.28,7.92,11.11,11.11,0,0,1-7.93,3.28,11.12,11.12,0,0,1-7.93-3.28,11.12,11.12,0,0,1-3.28-7.92,11.11,11.11,0,0,1,2.75-7.35,14.72,14.72,0,0,1-2.41-2.19,14.39,14.39,0,0,0-3.6,9.54A14.46,14.46,0,0,0-464,418,14.46,14.46,0,0,0-449.56,403.59Z" transform="translate(478.88 459.88)"/><path class="cls-1" d="M-455.57,433.78l-.53-.57a11.12,11.12,0,0,0-7.93-3.28,11.12,11.12,0,0,0-7.93,3.28c-.18.18-.36.37-.53.57a14.39,14.39,0,0,0,8.46,2.73A14.39,14.39,0,0,0-455.57,433.78Z" transform="translate(478.88 459.88)"/><path class="cls-1" d="M-464,426.68a14.42,14.42,0,0,1,10.87,4.92,14.39,14.39,0,0,0,3.6-9.54A14.46,14.46,0,0,0-464,407.61a14.46,14.46,0,0,0-14.47,14.45,14.39,14.39,0,0,0,3.6,9.54A14.46,14.46,0,0,1-464,426.68Z" transform="translate(478.88 459.88)"/><path class="cls-1" d="M-449.56,441.13a14.39,14.39,0,0,0-3.6-9.54,14.72,14.72,0,0,1-2.41,2.19,11.11,11.11,0,0,1,2.75,7.35,11.16,11.16,0,0,1-3.28,7.92,11.12,11.12,0,0,1-7.93,3.28,11.12,11.12,0,0,1-7.93-3.28,11.12,11.12,0,0,1-3.28-7.92,11.11,11.11,0,0,1,2.75-7.35,14.72,14.72,0,0,1-2.41-2.19,14.39,14.39,0,0,0-3.6,9.54A14.46,14.46,0,0,0-464,455.58,14.46,14.46,0,0,0-449.56,441.13Z" transform="translate(478.88 459.88)"/><path class="cls-1" d="M-455.57,471.32l-.53-.57a11.12,11.12,0,0,0-7.93-3.28,11.12,11.12,0,0,0-7.93,3.28c-.18.18-.36.37-.53.57a14.39,14.39,0,0,0,8.46,2.73A14.39,14.39,0,0,0-455.57,471.32Z" transform="translate(478.88 459.88)"/><path class="cls-1" d="M-464,464.22a14.42,14.42,0,0,1,10.87,4.92,14.39,14.39,0,0,0,3.6-9.54A14.46,14.46,0,0,0-464,445.15,14.46,14.46,0,0,0-478.5,459.6a14.39,14.39,0,0,0,3.6,9.54A14.46,14.46,0,0,1-464,464.22Z" transform="translate(478.88 459.88)"/><path class="cls-1" d="M-449.56,478.67a14.39,14.39,0,0,0-3.6-9.54,14.72,14.72,0,0,1-2.41,2.19,11.11,11.11,0,0,1,2.75,7.35,11.16,11.16,0,0,1-3.28,7.92,11.12,11.12,0,0,1-7.93,3.28,11.12,11.12,0,0,1-7.93-3.28,11.12,11.12,0,0,1-3.28-7.92,11.11,11.11,0,0,1,2.75-7.35,14.72,14.72,0,0,1-2.41-2.19,14.39,14.39,0,0,0-3.6,9.54A14.46,14.46,0,0,0-464,493.12,14.46,14.46,0,0,0-449.56,478.67Z" transform="translate(478.88 459.88)"/><path class="cls-1" d="M-455.57,508.86l-.53-.57A11.12,11.12,0,0,0-464,505a11.12,11.12,0,0,0-7.93,3.28c-.18.18-.36.37-.53.57a14.39,14.39,0,0,0,8.46,2.73A14.39,14.39,0,0,0-455.57,508.86Z" transform="translate(478.88 459.88)"/><path class="cls-1" d="M-464,501.76a14.42,14.42,0,0,1,10.87,4.92,14.39,14.39,0,0,0,3.6-9.54A14.46,14.46,0,0,0-464,482.69a14.46,14.46,0,0,0-14.47,14.45,14.39,14.39,0,0,0,3.6,9.54A14.46,14.46,0,0,1-464,501.76Z" transform="translate(478.88 459.88)"/><path class="cls-1" d="M-449.56,516.21a14.39,14.39,0,0,0-3.6-9.54,14.72,14.72,0,0,1-2.41,2.19,11.11,11.11,0,0,1,2.75,7.35,11.16,11.16,0,0,1-3.28,7.92,11.11,11.11,0,0,1-7.93,3.28,11.12,11.12,0,0,1-7.93-3.28,11.12,11.12,0,0,1-3.28-7.92,11.11,11.11,0,0,1,2.75-7.35,14.72,14.72,0,0,1-2.41-2.19,14.39,14.39,0,0,0-3.6,9.54A14.46,14.46,0,0,0-464,530.66,14.46,14.46,0,0,0-449.56,516.21Z" transform="translate(478.88 459.88)"/><path class="cls-1" d="M-455.57,546.4l-.53-.57a11.12,11.12,0,0,0-7.93-3.28,11.12,11.12,0,0,0-7.93,3.28c-.18.18-.36.37-.53.57a14.39,14.39,0,0,0,8.46,2.73A14.39,14.39,0,0,0-455.57,546.4Z" transform="translate(478.88 459.88)"/><path class="cls-1" d="M-464,539.3a14.42,14.42,0,0,1,10.87,4.92,14.39,14.39,0,0,0,3.6-9.54A14.46,14.46,0,0,0-464,520.23a14.46,14.46,0,0,0-14.47,14.45,14.39,14.39,0,0,0,3.6,9.54A14.46,14.46,0,0,1-464,539.3Z" transform="translate(478.88 459.88)"/><path class="cls-1" d="M-449.56,553.75a14.39,14.39,0,0,0-3.6-9.54,14.72,14.72,0,0,1-2.41,2.19,11.11,11.11,0,0,1,2.75,7.35,11.16,11.16,0,0,1-3.28,7.92A11.12,11.12,0,0,1-464,565a11.12,11.12,0,0,1-7.93-3.28,11.12,11.12,0,0,1-3.28-7.92,11.11,11.11,0,0,1,2.75-7.35,14.72,14.72,0,0,1-2.41-2.19,14.39,14.39,0,0,0-3.6,9.54A14.46,14.46,0,0,0-464,568.2a14.46,14.46,0,0,0,14.47-14.45Z" transform="translate(478.88 459.88)"/><path class="cls-1" d="M-455.57,584.36l-.53-.57a11.12,11.12,0,0,0-7.93-3.28,11.12,11.12,0,0,0-7.93,3.28c-.18.18-.36.37-.53.57a14.39,14.39,0,0,0,8.46,2.73A14.39,14.39,0,0,0-455.57,584.36Z" transform="translate(478.88 459.88)"/><path class="cls-1" d="M-464,577.26a14.42,14.42,0,0,1,10.87,4.92,14.39,14.39,0,0,0,3.6-9.54A14.46,14.46,0,0,0-464,558.19a14.46,14.46,0,0,0-14.47,14.45,14.39,14.39,0,0,0,3.6,9.54A14.46,14.46,0,0,1-464,577.26Z" transform="translate(478.88 459.88)"/><path class="cls-1" d="M-449.56,591.71a14.39,14.39,0,0,0-3.6-9.54,14.72,14.72,0,0,1-2.41,2.19,11.11,11.11,0,0,1,2.75,7.35,11.16,11.16,0,0,1-3.28,7.92,11.12,11.12,0,0,1-7.93,3.28,11.12,11.12,0,0,1-7.93-3.28,11.12,11.12,0,0,1-3.28-7.92,11.11,11.11,0,0,1,2.75-7.35,14.72,14.72,0,0,1-2.41-2.19,14.39,14.39,0,0,0-3.6,9.54A14.46,14.46,0,0,0-464,606.16,14.46,14.46,0,0,0-449.56,591.71Z" transform="translate(478.88 459.88)"/><path class="cls-1" d="M-455.57,622.57l-.53-.57a11.12,11.12,0,0,0-7.93-3.28A11.12,11.12,0,0,0-472,622c-.18.18-.36.37-.53.57A14.39,14.39,0,0,0-464,625.3,14.39,14.39,0,0,0-455.57,622.57Z" transform="translate(478.88 459.88)"/><path class="cls-1" d="M-464,615.47a14.42,14.42,0,0,1,10.87,4.92,14.39,14.39,0,0,0,3.6-9.54A14.46,14.46,0,0,0-464,596.4a14.46,14.46,0,0,0-14.47,14.45,14.39,14.39,0,0,0,3.6,9.54A14.46,14.46,0,0,1-464,615.47Z" transform="translate(478.88 459.88)"/><path class="cls-1" d="M-449.56,629.92a14.39,14.39,0,0,0-3.6-9.54,14.72,14.72,0,0,1-2.41,2.19,11.11,11.11,0,0,1,2.75,7.35,11.16,11.16,0,0,1-3.28,7.92,11.11,11.11,0,0,1-7.93,3.28,11.12,11.12,0,0,1-7.93-3.28,11.12,11.12,0,0,1-3.28-7.92,11.11,11.11,0,0,1,2.75-7.35,14.72,14.72,0,0,1-2.41-2.19,14.39,14.39,0,0,0-3.6,9.54A14.46,14.46,0,0,0-464,644.37,14.46,14.46,0,0,0-449.56,629.92Z" transform="translate(478.88 459.88)"/><path class="cls-1" d="M-455.57,660.11l-.53-.57a11.12,11.12,0,0,0-7.93-3.28,11.12,11.12,0,0,0-7.93,3.28c-.18.18-.36.37-.53.57a14.39,14.39,0,0,0,8.46,2.73A14.39,14.39,0,0,0-455.57,660.11Z" transform="translate(478.88 459.88)"/><path class="cls-1" d="M-464,653a14.42,14.42,0,0,1,10.87,4.92,14.39,14.39,0,0,0,3.6-9.54A14.46,14.46,0,0,0-464,633.94a14.46,14.46,0,0,0-14.47,14.45,14.39,14.39,0,0,0,3.6,9.54A14.46,14.46,0,0,1-464,653Z" transform="translate(478.88 459.88)"/><path class="cls-1" d="M-449.56,667.46a14.39,14.39,0,0,0-3.6-9.54,14.72,14.72,0,0,1-2.41,2.19,11.11,11.11,0,0,1,2.75,7.35,11.16,11.16,0,0,1-3.28,7.92,11.12,11.12,0,0,1-7.93,3.28,11.12,11.12,0,0,1-7.93-3.28,11.12,11.12,0,0,1-3.28-7.92,11.11,11.11,0,0,1,2.75-7.35,14.72,14.72,0,0,1-2.41-2.19,14.39,14.39,0,0,0-3.6,9.54A14.46,14.46,0,0,0-464,681.91,14.46,14.46,0,0,0-449.56,667.46Z" transform="translate(478.88 459.88)"/><path class="cls-1" d="M-455.57,697.65l-.53-.57A11.12,11.12,0,0,0-464,693.8a11.12,11.12,0,0,0-7.93,3.28c-.18.18-.36.37-.53.57a14.39,14.39,0,0,0,8.46,2.73A14.39,14.39,0,0,0-455.57,697.65Z" transform="translate(478.88 459.88)"/><path class="cls-1" d="M-464,690.55a14.42,14.42,0,0,1,10.87,4.92,14.39,14.39,0,0,0,3.6-9.54A14.46,14.46,0,0,0-464,671.48a14.46,14.46,0,0,0-14.47,14.45,14.39,14.39,0,0,0,3.6,9.54A14.46,14.46,0,0,1-464,690.55Z" transform="translate(478.88 459.88)"/><path class="cls-1" d="M-449.56,705a14.39,14.39,0,0,0-3.6-9.54,14.72,14.72,0,0,1-2.41,2.19,11.11,11.11,0,0,1,2.75,7.35,11.16,11.16,0,0,1-3.28,7.92A11.11,11.11,0,0,1-464,716.2a11.12,11.12,0,0,1-7.93-3.28,11.12,11.12,0,0,1-3.28-7.92,11.11,11.11,0,0,1,2.75-7.35,14.72,14.72,0,0,1-2.41-2.19,14.39,14.39,0,0,0-3.6,9.54A14.46,14.46,0,0,0-464,719.45,14.46,14.46,0,0,0-449.56,705Z" transform="translate(478.88 459.88)"/><path class="cls-1" d="M-455.57,735.19l-.53-.57a11.12,11.12,0,0,0-7.93-3.28,11.12,11.12,0,0,0-7.93,3.28c-.18.18-.36.37-.53.57a14.39,14.39,0,0,0,8.46,2.73A14.39,14.39,0,0,0-455.57,735.19Z" transform="translate(478.88 459.88)"/><path class="cls-1" d="M-464,728.09A14.42,14.42,0,0,1-453.16,733a14.39,14.39,0,0,0,3.6-9.54A14.46,14.46,0,0,0-464,709a14.46,14.46,0,0,0-14.47,14.45,14.39,14.39,0,0,0,3.6,9.54A14.46,14.46,0,0,1-464,728.09Z" transform="translate(478.88 459.88)"/><path class="cls-1" d="M-449.56,742.54a14.39,14.39,0,0,0-3.6-9.54,14.72,14.72,0,0,1-2.41,2.19,11.11,11.11,0,0,1,2.75,7.35,11.16,11.16,0,0,1-3.28,7.92,11.12,11.12,0,0,1-7.93,3.28,11.12,11.12,0,0,1-7.93-3.28,11.12,11.12,0,0,1-3.28-7.92,11.11,11.11,0,0,1,2.75-7.35A14.72,14.72,0,0,1-474.9,733a14.39,14.39,0,0,0-3.6,9.54A14.46,14.46,0,0,0-464,757,14.46,14.46,0,0,0-449.56,742.54Z" transform="translate(478.88 459.88)"/><path class="cls-1" d="M-455.57,772.73l-.53-.57a11.12,11.12,0,0,0-7.93-3.28,11.12,11.12,0,0,0-7.93,3.28c-.18.18-.36.37-.53.57a14.39,14.39,0,0,0,8.46,2.73A14.39,14.39,0,0,0-455.57,772.73Z" transform="translate(478.88 459.88)"/><path class="cls-1" d="M-464,765.63a14.42,14.42,0,0,1,10.87,4.92,14.39,14.39,0,0,0,3.6-9.54A14.46,14.46,0,0,0-464,746.56,14.46,14.46,0,0,0-478.5,761a14.39,14.39,0,0,0,3.6,9.54A14.46,14.46,0,0,1-464,765.63Z" transform="translate(478.88 459.88)"/><path class="cls-1" d="M-449.56,780.08a14.39,14.39,0,0,0-3.6-9.54,14.72,14.72,0,0,1-2.41,2.19,11.11,11.11,0,0,1,2.75,7.35A11.16,11.16,0,0,1-456.1,788a11.11,11.11,0,0,1-7.93,3.28A11.12,11.12,0,0,1-472,788a11.12,11.12,0,0,1-3.28-7.92,11.11,11.11,0,0,1,2.75-7.35,14.72,14.72,0,0,1-2.41-2.19,14.39,14.39,0,0,0-3.6,9.54A14.46,14.46,0,0,0-464,794.53,14.46,14.46,0,0,0-449.56,780.08Z" transform="translate(478.88 459.88)"/><path class="cls-1" d="M-455.57,810.28l-.53-.57a11.12,11.12,0,0,0-7.93-3.28,11.12,11.12,0,0,0-7.93,3.28c-.18.18-.36.37-.53.57A14.39,14.39,0,0,0-464,813,14.39,14.39,0,0,0-455.57,810.28Z" transform="translate(478.88 459.88)"/><path class="cls-1" d="M-464,803.17a14.42,14.42,0,0,1,10.87,4.92,14.39,14.39,0,0,0,3.6-9.54A14.46,14.46,0,0,0-464,784.1a14.46,14.46,0,0,0-14.47,14.45,14.39,14.39,0,0,0,3.6,9.54A14.46,14.46,0,0,1-464,803.17Z" transform="translate(478.88 459.88)"/><path class="cls-1" d="M-449.56,817.62a14.39,14.39,0,0,0-3.6-9.54,14.72,14.72,0,0,1-2.41,2.19,11.11,11.11,0,0,1,2.75,7.35,11.16,11.16,0,0,1-3.28,7.92,11.12,11.12,0,0,1-7.93,3.28,11.12,11.12,0,0,1-7.93-3.28,11.12,11.12,0,0,1-3.28-7.92,11.11,11.11,0,0,1,2.75-7.35,14.72,14.72,0,0,1-2.41-2.19,14.39,14.39,0,0,0-3.6,9.54A14.46,14.46,0,0,0-464,832.07,14.46,14.46,0,0,0-449.56,817.62Z" transform="translate(478.88 459.88)"/><path class="cls-1" d="M-455.57,848.23l-.53-.57a11.12,11.12,0,0,0-7.93-3.28,11.12,11.12,0,0,0-7.93,3.28c-.18.18-.36.37-.53.57A14.39,14.39,0,0,0-464,851,14.39,14.39,0,0,0-455.57,848.23Z" transform="translate(478.88 459.88)"/><path class="cls-1" d="M-464,841.13a14.42,14.42,0,0,1,10.87,4.92,14.39,14.39,0,0,0,3.6-9.54A14.46,14.46,0,0,0-464,822.06a14.46,14.46,0,0,0-14.47,14.45,14.39,14.39,0,0,0,3.6,9.54A14.46,14.46,0,0,1-464,841.13Z" transform="translate(478.88 459.88)"/><path class="cls-1" d="M-449.56,855.58a14.39,14.39,0,0,0-3.6-9.54,14.72,14.72,0,0,1-2.41,2.19,11.11,11.11,0,0,1,2.75,7.35,11.16,11.16,0,0,1-3.28,7.92,11.12,11.12,0,0,1-7.93,3.28A11.12,11.12,0,0,1-472,863.5a11.12,11.12,0,0,1-3.28-7.92,11.11,11.11,0,0,1,2.75-7.35A14.72,14.72,0,0,1-474.9,846a14.39,14.39,0,0,0-3.6,9.54A14.46,14.46,0,0,0-464,870,14.46,14.46,0,0,0-449.56,855.58Z" transform="translate(478.88 459.88)"/><path class="cls-1" d="M-455.57,886.44l-.53-.57a11.12,11.12,0,0,0-7.93-3.28,11.12,11.12,0,0,0-7.93,3.28c-.18.18-.36.37-.53.57a14.39,14.39,0,0,0,8.46,2.73A14.39,14.39,0,0,0-455.57,886.44Z" transform="translate(478.88 459.88)"/><path class="cls-1" d="M-464,879.34a14.42,14.42,0,0,1,10.87,4.92,14.39,14.39,0,0,0,3.6-9.54A14.46,14.46,0,0,0-464,860.27a14.46,14.46,0,0,0-14.47,14.45,14.39,14.39,0,0,0,3.6,9.54A14.46,14.46,0,0,1-464,879.34Z" transform="translate(478.88 459.88)"/><path class="cls-1" d="M-449.56,893.79a14.39,14.39,0,0,0-3.6-9.54,14.72,14.72,0,0,1-2.41,2.19,11.11,11.11,0,0,1,2.75,7.35,11.16,11.16,0,0,1-3.28,7.92A11.12,11.12,0,0,1-464,905a11.12,11.12,0,0,1-7.93-3.28,11.12,11.12,0,0,1-3.28-7.92,11.11,11.11,0,0,1,2.75-7.35,14.72,14.72,0,0,1-2.41-2.19,14.39,14.39,0,0,0-3.6,9.54A14.46,14.46,0,0,0-464,908.24,14.46,14.46,0,0,0-449.56,893.79Z" transform="translate(478.88 459.88)"/><path class="cls-1" d="M-455.57,924l-.53-.57a11.12,11.12,0,0,0-7.93-3.28,11.12,11.12,0,0,0-7.93,3.28c-.18.18-.36.37-.53.57a14.39,14.39,0,0,0,8.46,2.73A14.39,14.39,0,0,0-455.57,924Z" transform="translate(478.88 459.88)"/><path class="cls-1" d="M-464,916.88a14.42,14.42,0,0,1,10.87,4.92,14.39,14.39,0,0,0,3.6-9.54A14.46,14.46,0,0,0-464,897.81a14.46,14.46,0,0,0-14.47,14.45,14.39,14.39,0,0,0,3.6,9.54A14.46,14.46,0,0,1-464,916.88Z" transform="translate(478.88 459.88)"/><path class="cls-1" d="M-449.56,931.33a14.39,14.39,0,0,0-3.6-9.54,14.72,14.72,0,0,1-2.41,2.19,11.11,11.11,0,0,1,2.75,7.35,11.16,11.16,0,0,1-3.28,7.92,11.12,11.12,0,0,1-7.93,3.28,11.12,11.12,0,0,1-7.93-3.28,11.12,11.12,0,0,1-3.28-7.92,11.11,11.11,0,0,1,2.75-7.35,14.72,14.72,0,0,1-2.41-2.19,14.39,14.39,0,0,0-3.6,9.54A14.46,14.46,0,0,0-464,945.78,14.46,14.46,0,0,0-449.56,931.33Z" transform="translate(478.88 459.88)"/><path class="cls-1" d="M-455.57,961.52l-.53-.57a11.12,11.12,0,0,0-7.93-3.28A11.12,11.12,0,0,0-472,961c-.18.18-.36.37-.53.57a14.39,14.39,0,0,0,8.46,2.73A14.39,14.39,0,0,0-455.57,961.52Z" transform="translate(478.88 459.88)"/><path class="cls-1" d="M-464,954.42a14.42,14.42,0,0,1,10.87,4.92,14.39,14.39,0,0,0,3.6-9.54A14.46,14.46,0,0,0-464,935.35,14.46,14.46,0,0,0-478.5,949.8a14.39,14.39,0,0,0,3.6,9.54A14.46,14.46,0,0,1-464,954.42Z" transform="translate(478.88 459.88)"/><path class="cls-1" d="M-449.56,968.87a14.39,14.39,0,0,0-3.6-9.54,14.72,14.72,0,0,1-2.41,2.19,11.11,11.11,0,0,1,2.75,7.35,11.16,11.16,0,0,1-3.28,7.92,11.11,11.11,0,0,1-7.93,3.28,11.12,11.12,0,0,1-7.93-3.28,11.12,11.12,0,0,1-3.28-7.92,11.11,11.11,0,0,1,2.75-7.35,14.72,14.72,0,0,1-2.41-2.19,14.39,14.39,0,0,0-3.6,9.54A14.46,14.46,0,0,0-464,983.32,14.46,14.46,0,0,0-449.56,968.87Z" transform="translate(478.88 459.88)"/><path class="cls-1" d="M-455.57,999.06l-.53-.57a11.12,11.12,0,0,0-7.93-3.28,11.12,11.12,0,0,0-7.93,3.28c-.18.18-.36.37-.53.57a14.39,14.39,0,0,0,8.46,2.73A14.39,14.39,0,0,0-455.57,999.06Z" transform="translate(478.88 459.88)"/><path class="cls-1" d="M-464,992a14.42,14.42,0,0,1,10.87,4.92,14.39,14.39,0,0,0,3.6-9.54A14.46,14.46,0,0,0-464,972.89a14.46,14.46,0,0,0-14.47,14.45,14.39,14.39,0,0,0,3.6,9.54A14.46,14.46,0,0,1-464,992Z" transform="translate(478.88 459.88)"/><path class="cls-1" d="M-449.56,1006.41a14.39,14.39,0,0,0-3.6-9.54,14.72,14.72,0,0,1-2.41,2.19,11.11,11.11,0,0,1,2.75,7.35,11.16,11.16,0,0,1-3.28,7.92,11.11,11.11,0,0,1-7.93,3.28,11.12,11.12,0,0,1-7.93-3.28,11.12,11.12,0,0,1-3.28-7.92,11.11,11.11,0,0,1,2.75-7.35,14.72,14.72,0,0,1-2.41-2.19,14.39,14.39,0,0,0-3.6,9.54A14.46,14.46,0,0,0-464,1020.86,14.46,14.46,0,0,0-449.56,1006.41Z" transform="translate(478.88 459.88)"/></g></g></g></svg>