<?xml version="1.0" encoding="utf-8"?>
<!-- Generator: Adobe Illustrator 24.0.1, SVG Export Plug-In . SVG Version: 6.00 Build 0)  -->
<svg version="1.1" id="Layer_1" xmlns="http://www.w3.org/2000/svg" xmlns:xlink="http://www.w3.org/1999/xlink" x="0px" y="0px"
	 viewBox="0 0 167.8 102" style="enable-background:new 0 0 167.8 102;" xml:space="preserve">
<style type="text/css">
	.st0{fill:#FFFFFF;}
	.st1{fill:#FFFFFF;stroke:#000000;stroke-width:0.5669;stroke-miterlimit:10;}
</style>
<rect x="83.4" y="12.2" transform="matrix(6.123234e-17 -1 1 6.123234e-17 -2.2249 170.0334)" class="st0" width="0.9" height="147.9"/>
<rect x="10.7" y="0.3" class="st0" width="1.2" height="86"/>
<rect x="156.7" y="0.5" class="st0" width="1.8" height="86"/>
<polygon class="st0" points="25,-1.2 11.4,14.1 11.1,-1.4 "/>
<polygon class="st0" points="157.3,-0.6 157.5,13.7 143.7,-0.7 "/>
<path class="st1" d="M143.3,0.3H25.5c-7.6,0-13.8,6.6-13.8,14.7v70.8h145.5V15C157.2,6.9,151,0.3,143.3,0.3z M154,82.7H14.8V15.4
	c0-6.8,5.2-12.3,11.5-12.3h116.2c6.4,0,11.5,5.5,11.5,12.3V82.7z"/>
</svg>
