<?xml version="1.0" encoding="utf-8"?>
<!-- Generator: Adobe Illustrator 24.0.1, SVG Export Plug-In . SVG Version: 6.00 Build 0)  -->
<svg version="1.1" id="Layer_2_1_" xmlns="http://www.w3.org/2000/svg" xmlns:xlink="http://www.w3.org/1999/xlink" x="0px" y="0px"
	 viewBox="0 0 965.7 525.5" style="enable-background:new 0 0 965.7 525.5;" xml:space="preserve">
<style type="text/css">
	.st0{fill:#FFFFFF;stroke:#00150A;stroke-width:1.05;}
</style>
<g id="Layer_2-2">
	<g>
		<g>
			<g>
				<path class="st0" d="M73.8,314.9c0,2.1-0.1,4.1-0.4,6.2c-0.1-3.9-0.1-7.6,0-11C73.7,311.8,73.8,313.4,73.8,314.9z"/>
				<path class="st0" d="M37.3,34.5c-0.3,0.8-0.5,1.5-0.6,2.2c-0.4,2.5,0,5.5,0.7,8.6C37.5,41.6,37.5,37.7,37.3,34.5L37.3,34.5z"/>
				<path class="st0" d="M85.2,182.1c-4.7,5.2-12.4,12.6-19.5,22.3c-0.4-1.7-0.8-3.4-1.1-5c8.2-9.7,15.1-20.1,19.4-26.9
					C84.6,175.6,85,178.8,85.2,182.1L85.2,182.1z"/>
				<path class="st0" d="M72.1,142.1c-2.4,2.8-4.6,6-6.7,9.6c-1.5,2-3,4-4.6,6.1c1.5-6,3.1-12.8,4.7-20.7c0.2-0.3,0.3-0.7,0.4-1.2
					c0.2-0.6,0.3-1.3,0.5-2C68.1,136,70.1,138.8,72.1,142.1L72.1,142.1z"/>
				<path class="st0" d="M57.9,423c0,0.6,0,1.3,0,1.9c0,0.6,0,1.2,0,1.8c0,0.6-0.1,1.2-0.1,1.8c0,0.3,0,0.7-0.1,1
					c0,0.7-0.1,1.4-0.2,2c0,0.1,0,0.3,0,0.4c0,0.5-0.1,1-0.2,1.5c-4.2-1.6-6.6-3.6-7.1-6.1c-1.1-4.6,1.3-12.7,5.9-22
					c0.4,2.6,0.8,5.4,1.2,8.1c0.1,1,0.2,2.1,0.3,3.1c0,0.3,0,0.7,0.1,1c0,0.7,0.1,1.4,0.1,2.1c0,0.4,0,0.8,0,1.2
					C57.9,421.6,57.9,422.3,57.9,423L57.9,423z"/>
				<path class="st0" d="M72.3,142.4c-1.9,2.6-4.3,5.8-6.8,9.3c2-3.6,4.3-6.8,6.7-9.6C72.2,142.2,72.2,142.3,72.3,142.4L72.3,142.4z
					"/>
				<path class="st0" d="M74.9,101.6c-3.2,12-6.4,23.6-8.5,32.3c-0.2,0.7-0.3,1.4-0.5,2c-0.1,0.5-0.2,0.9-0.4,1.2
					c-1.6,7.9-3.2,14.7-4.7,20.7c-0.1,0.1-0.1,0.2-0.2,0.3c-0.3-10-0.4-20.6-0.4-31.1l0.4,0.6c0.1-10.6,0.2-26.9,0.4-43.2
					c0-0.8,0-1.6,0-2.4c0.2-22.6,0.5-44.8,0.7-51.3l0.4-2.7l0.2-1.3c1.3,0.3,11.4-6.1,20.8,21.7C86.1,56.8,80.6,79.8,74.9,101.6
					L74.9,101.6z"/>
				<path class="st0" d="M61.2,81.9c0,0.8,0,1.6,0,2.4l0-0.1C61.1,83.5,61.1,82.7,61.2,81.9z"/>
				<path class="st0" d="M51.2,4c-4-3-12.5-6.8-24.1,1.6c-8.6,6.2-13.9,15.2-15.6,26.1C7.9,56.4,25.3,82.4,27.3,85.3l8,10.1
					c-0.2,9.9-0.4,20.7-0.4,31.8c0.1-0.2,0.3-0.3,0.4-0.5c-0.2,10.8,0.8,21.8,1.6,32.5c0.3,3.8-1,21.3,2.4,20.2
					c5.6-1.9,14-11.6,21.5-21.3c-0.3-10-0.4-20.6-0.4-31.1l0.4,0.6c0.1-10.6,0.2-26.9,0.4-43.2l0-0.1c0-0.8,0-1.6,0.1-2.3
					c0.2-22.6,0.5-44.8,0.7-51.3l0.4-2.7C60.8,16.3,57.2,8.4,51.2,4L51.2,4z M37.4,45.4c-0.8-3.1-1.1-6.1-0.7-8.6
					c0.1-0.7,0.3-1.5,0.6-2.2C37.5,37.7,37.5,41.5,37.4,45.4L37.4,45.4z"/>
				<path class="st0" d="M89.7,175.6c0,0.1,0,0.1,0,0.1c-0.4,1.6-2,3.7-4.5,6.4c-0.3-3.3-0.7-6.6-1.3-9.6c0,0,0,0,0,0
					C86,169.2,90.6,171.6,89.7,175.6z"/>
				<path class="st0" d="M146.6,480.3l-4.1,29.2c-11.9-2.2-25.1-10.5-40.5-20c-0.9-0.5-1.7-1.1-2.6-1.6c-6,21.8-14.8,35.8-15.5,36.8
					l-10.2-8.8l-10.3-8.8c0.1-0.2,8.1-13.2,12.8-32.9c-0.8-0.4-1.5-0.8-2.3-1.2c-7.5-4-15.4-7.8-23.7-11c-0.3-0.1-0.5-0.2-0.7-0.3
					c-16.2-6.1-22-17.8-24-26.6c-5.8-25,12.9-54.3,22.8-67.7c-14-21-27.8-45.7-23.8-84.9c2.1-21.1,13.6-32.4,25-40.8
					c5.5-2.7,33.9-24.6,34.7-24.6c0.6-2.1,16.6-8.7,26.5-23.6c-0.1,3.3-0.4,6.6-0.8,10c-1.3,10.3-4,18.8-7.5,25.9
					c-3.6,7.1-8,12.7-12.7,17.4c0-0.1,0-0.1,0.1-0.1c-4.3,3-24.8,18.3-29.2,21.9c0,0,0,0-0.1,0.1c-6.5,5-10,9.7-10.8,17.2
					c-0.5,5.1-0.6,9.9-0.4,14.3c-1.2,9.6-1.9,18.6-1.9,28.6c0,1.9,2.2,26,2.2,27.9c1.5,13.7,3.6,29.7,6.4,48.6
					c-4.7,9.3-7,17.4-5.9,22c0.6,2.4,3,4.5,7.1,6.1c0,0.2,0,0.5-0.1,0.7c8,3.9,16.1,7.7,24.2,11.1c1.9-11.3,2.6-23.5,1.1-36.2
					l-0.1-0.5c-6-39-8.7-66.7-9-87.5c0.3-2,0.4-4.1,0.4-6.2c0-1.5-0.1-3.2-0.3-4.8c0.6-25.5,5.3-38.9,11.1-51.8
					c7.8,19.9,14.4,38.8,14.7,56.1c0.3,21.9-9.2,41.3-17.8,54.5c7.9,12.6,15.5,27,19.8,45.2c3.7,15.5,4.4,30.2,3.4,43.6
					c3.3,2,6.4,3.9,9.3,5.8C127.5,471.7,139,478.8,146.6,480.3L146.6,480.3z"/>
				<path class="st0" d="M96.9,131.9c-7.7-2.9-14.7-0.8-20.2,5c-0.9,1-2.4,2.9-4.3,5.4c-0.1-0.1-0.1-0.2-0.2-0.3
					c-2-3.3-4-6.1-5.7-8.2c2-8.6,5.3-20.2,8.5-32.3l3.8,4.7C81.2,109,89.4,117.8,96.9,131.9L96.9,131.9z"/>
				<path class="st0" d="M64.6,199.5c-6.6,7.8-14,15-21.7,19.5c1.9,7,4.2,13.9,6.7,20.8c2.8-14.1,9.2-25.8,16.1-35.3
					C65.3,202.8,64.9,201.1,64.6,199.5z"/>
				<path class="st0" d="M89.8,246.8c0,0.1,0,0.1-0.1,0.1c-0.8,1.8-1.7,3.6-2.5,5.4c-0.9,2-1.8,4-2.7,6c-5.8,13-10.5,26.3-11.1,51.8
					c-0.1,3.4-0.1,7.1,0,11c0.4,20.7,3,48.4,9,87.5l0.1,0.5c1.6,12.7,0.9,24.9-1.1,36.2c-8.2-3.4-16.2-7.2-24.2-11.1
					c0-0.2,0-0.5,0.1-0.7c0.1-0.5,0.1-1,0.2-1.5c0-0.1,0-0.3,0-0.4c0.1-0.7,0.1-1.3,0.2-2c0-0.3,0-0.7,0.1-1c0-0.6,0.1-1.2,0.1-1.8
					c0-0.6,0-1.2,0-1.8c0-0.6,0-1.3,0-1.9c0-0.7,0-1.4,0-2c0-0.4,0-0.8,0-1.2c0-0.7-0.1-1.4-0.1-2.1c0-0.3,0-0.7-0.1-1
					c-0.1-1-0.2-2.1-0.3-3.1c-0.4-2.8-0.8-5.5-1.2-8.1c-2.8-18.9-4.9-34.9-6.4-48.6c0-1.9-2.2-26-2.2-27.9c0.1-10,0.7-19,1.9-28.6
					c-0.2-4.4-0.1-9.2,0.4-14.3c0.8-7.6,4.3-12.2,10.8-17.2c0-0.1,0.1-0.1,0.1-0.1C65,265,85.5,249.7,89.8,246.8L89.8,246.8z"/>
				<path class="st0" d="M74,472.9c-0.2,0.5-0.4,1-0.6,1.5c-0.2,0.6-0.5,1.2-0.7,1.8c-0.2,0.5-0.4,1.1-0.6,1.6
					c-0.2,0.5-0.4,1-0.6,1.6c-0.2,0.5-0.4,1-0.6,1.5c-0.2,0.5-0.4,1-0.6,1.5c-0.5,1.1-1,2.2-1.4,3.2c-0.2,0.3-0.3,0.6-0.5,1
					c-1.8,3.8-3.4,7-4.9,9.6c-0.2,0.3-0.3,0.6-0.5,0.9c-0.6,1-1.1,2-1.6,2.8c-0.1,0.2-0.3,0.5-0.4,0.7c-0.1,0.2-0.3,0.4-0.4,0.6
					c-0.2,0.4-0.5,0.7-0.6,1c-0.1,0.2-0.2,0.3-0.3,0.5c-0.1,0.2-0.3,0.4-0.4,0.6c-0.2,0.3-0.3,0.5-0.4,0.6l-20.1-18.1
					c0-0.1,1.5-2.4,3.7-6.4c2.1-4,4.9-9.7,7.5-16.5c0.1-0.3,0.3-0.6,0.4-1C58.6,465.1,66.5,468.9,74,472.9L74,472.9z"/>
			</g>
			<path class="st0" d="M110.8,193.6c-9.9,14.9-26,21.5-26.5,23.6c-0.9,0-29.2,21.9-34.8,24.6c-0.2,0.1-0.3,0.1-0.5,0.2
				c0.1-0.8,0.3-1.5,0.4-2.3c2.8-14.1,9.2-25.8,16.2-35.3c7.1-9.8,14.8-17.1,19.5-22.3c2.4-2.7,4.1-4.8,4.5-6.4c0-0.1,0-0.1,0-0.1
				c0.9-3.9-3.7-6.4-5.7-3.1c0,0,0,0,0,0c-4.3,6.8-11.2,17.3-19.4,26.9c-6.6,7.8-14,15-21.7,19.5c-3.7,2.2-7.5,3.8-11.3,4.4l0.1,0.3
				c-54.7,12.9-22.1-50.7-15.3-63.3c2.9-7.9,11.9-24.6,18.4-33.3c0.1-0.2,0.3-0.3,0.4-0.5c-0.2,10.8,0.8,21.8,1.6,32.5
				c0.3,3.8-1,21.3,2.4,20.2c5.6-1.9,14-11.6,21.5-21.3c0.1-0.1,0.1-0.2,0.2-0.3c1.6-2.1,3.1-4.1,4.6-6.1c2.6-3.5,4.9-6.7,6.8-9.3
				c1.9-2.5,3.4-4.5,4.3-5.4c5.5-5.7,12.5-7.9,20.2-5c1.7,0.6,3.5,1.6,5.3,2.7c0.4,0.3,0.7,0.5,1.1,0.8c4.1,2.9,12.5,11.3,14.5,22.9
				C120.4,173.4,116.6,184.9,110.8,193.6L110.8,193.6z"/>
		</g>
		<g>
			<g>
				<path class="st0" d="M891.9,314.9c0,2.1,0.1,4.1,0.4,6.2c0.1-3.9,0-7.6,0-11C892.1,311.8,891.9,313.4,891.9,314.9z"/>
				<path class="st0" d="M928.5,34.5c0.3,0.8,0.5,1.5,0.6,2.2c0.4,2.5,0,5.5-0.7,8.6C928.2,41.6,928.2,37.7,928.5,34.5L928.5,34.5z"
					/>
				<path class="st0" d="M880.5,182.1c4.7,5.2,12.4,12.6,19.5,22.3c0.4-1.7,0.8-3.4,1.1-5c-8.2-9.7-15.1-20.1-19.4-26.9
					C881.2,175.6,880.8,178.8,880.5,182.1L880.5,182.1z"/>
				<path class="st0" d="M893.6,142.1c2.4,2.8,4.6,6,6.7,9.6c1.5,2,3,4,4.6,6.1c-1.5-6-3.1-12.8-4.7-20.7c-0.2-0.3-0.3-0.7-0.4-1.2
					c-0.2-0.6-0.3-1.3-0.5-2C897.6,136,895.7,138.8,893.6,142.1L893.6,142.1z"/>
				<path class="st0" d="M907.8,423c0,0.6,0,1.3,0,1.9c0,0.6,0,1.2,0,1.8c0,0.6,0.1,1.2,0.1,1.8c0,0.3,0,0.7,0.1,1
					c0,0.7,0.1,1.4,0.2,2c0,0.1,0,0.3,0,0.4c0,0.5,0.1,1,0.2,1.5c4.2-1.6,6.6-3.6,7.1-6.1c1.1-4.6-1.3-12.7-5.9-22
					c-0.4,2.6-0.8,5.4-1.2,8.1c-0.1,1-0.2,2.1-0.3,3.1c0,0.3,0,0.7-0.1,1c0,0.7-0.1,1.4-0.1,2.1c0,0.4,0,0.8,0,1.2
					C907.9,421.6,907.9,422.3,907.8,423L907.8,423z"/>
				<path class="st0" d="M893.4,142.4c1.9,2.6,4.3,5.8,6.8,9.3c-2-3.6-4.3-6.8-6.7-9.6C893.5,142.2,893.5,142.3,893.4,142.4
					L893.4,142.4z"/>
				<path class="st0" d="M890.8,101.6c3.2,12,6.4,23.6,8.5,32.3c0.2,0.7,0.3,1.4,0.5,2c0.1,0.5,0.2,0.9,0.4,1.2
					c1.6,7.9,3.2,14.7,4.7,20.7c0.1,0.1,0.1,0.2,0.2,0.3c0.3-10,0.4-20.6,0.4-31.1l-0.4,0.6c-0.1-10.6-0.2-26.9-0.4-43.2
					c0-0.8,0-1.6,0-2.4c-0.2-22.6-0.5-44.8-0.7-51.3l-0.4-2.7l-0.2-1.3c-1.3,0.3-11.4-6.1-20.8,21.7
					C879.7,56.8,885.1,79.8,890.8,101.6L890.8,101.6z"/>
				<path class="st0" d="M904.6,81.9c0,0.8,0,1.6,0,2.4l0-0.1C904.6,83.5,904.6,82.7,904.6,81.9z"/>
				<path class="st0" d="M914.5,4c4-3,12.5-6.8,24.1,1.6c8.6,6.2,14,15.2,15.6,26.1c3.6,24.7-13.7,50.7-15.7,53.5l-8,10.1
					c0.2,9.9,0.4,20.7,0.4,31.8c-0.1-0.2-0.3-0.3-0.4-0.5c0.2,10.8-0.8,21.8-1.6,32.5c-0.3,3.8,1,21.3-2.4,20.2
					c-5.6-1.9-14-11.6-21.5-21.3c0.3-10,0.4-20.6,0.4-31.1l-0.4,0.6c-0.1-10.6-0.2-26.9-0.4-43.2l0-0.1c0-0.8,0-1.6-0.1-2.3
					c-0.2-22.6-0.5-44.8-0.7-51.3l-0.4-2.7C904.9,16.3,908.6,8.4,914.5,4L914.5,4z M928.4,45.4c0.8-3.1,1.1-6.1,0.7-8.6
					c-0.1-0.7-0.3-1.5-0.6-2.2C928.2,37.7,928.2,41.5,928.4,45.4L928.4,45.4z"/>
				<path class="st0" d="M876,175.6c0,0.1,0,0.1,0,0.1c0.4,1.6,2,3.7,4.5,6.4c0.3-3.3,0.7-6.6,1.3-9.6c0,0,0,0,0,0
					C879.7,169.2,875.1,171.6,876,175.6z"/>
				<path class="st0" d="M819.1,480.3l4.1,29.2c11.9-2.2,25.1-10.5,40.5-20c0.9-0.5,1.7-1.1,2.6-1.6c6,21.8,14.8,35.8,15.5,36.8
					l10.2-8.8l10.3-8.8c-0.1-0.2-8.1-13.2-12.8-32.9c0.8-0.4,1.5-0.8,2.3-1.2c7.5-4,15.4-7.8,23.7-11c0.3-0.1,0.5-0.2,0.7-0.3
					c16.2-6.1,22-17.8,24-26.6c5.8-25-12.9-54.3-22.8-67.7c14-21,27.8-45.7,23.8-84.9c-2.1-21.1-13.6-32.4-25-40.8
					c-5.5-2.7-33.9-24.6-34.8-24.6c-0.5-2.1-16.6-8.7-26.5-23.6c0.1,3.3,0.4,6.6,0.8,10c1.3,10.3,4,18.8,7.5,25.9
					c3.6,7.1,8,12.7,12.7,17.4c0-0.1,0-0.1-0.1-0.1c4.3,3,24.8,18.3,29.2,21.9c0,0,0,0,0.1,0.1c6.5,5,10,9.7,10.8,17.2
					c0.5,5.1,0.6,9.9,0.4,14.3c1.2,9.6,1.9,18.6,1.9,28.6c0,1.9-2.2,26-2.2,27.9c-1.5,13.7-3.6,29.7-6.4,48.6c4.7,9.3,7,17.4,5.9,22
					c-0.6,2.4-3,4.5-7.1,6.1c0,0.2,0,0.5,0.1,0.7c-8,3.9-16.1,7.7-24.2,11.1c-1.9-11.3-2.6-23.5-1-36.2l0.1-0.5
					c6-39,8.7-66.7,9-87.5c-0.3-2-0.4-4.1-0.4-6.2c0-1.5,0.1-3.2,0.3-4.8c-0.6-25.5-5.3-38.9-11.1-51.8
					c-7.8,19.9-14.5,38.8-14.7,56.1c-0.3,21.9,9.2,41.3,17.8,54.5c-7.9,12.6-15.5,27-19.8,45.2c-3.7,15.5-4.4,30.2-3.4,43.6
					c-3.3,2-6.4,3.9-9.3,5.8C838.3,471.7,826.7,478.8,819.1,480.3L819.1,480.3z"/>
				<path class="st0" d="M868.9,131.9c7.7-2.9,14.7-0.8,20.2,5c0.9,1,2.4,2.9,4.3,5.4c0.1-0.1,0.1-0.2,0.2-0.3c2-3.3,4-6.1,5.7-8.2
					c-2-8.6-5.3-20.2-8.5-32.3l-3.8,4.7C884.5,109,876.3,117.8,868.9,131.9L868.9,131.9z"/>
				<path class="st0" d="M901.2,199.5c6.6,7.8,14,15,21.7,19.5c-1.9,7-4.2,13.9-6.7,20.8c-2.8-14.1-9.2-25.8-16.2-35.3
					C900.4,202.8,900.8,201.1,901.2,199.5L901.2,199.5z"/>
				<path class="st0" d="M875.9,246.8c0,0.1,0,0.1,0.1,0.1c0.8,1.8,1.7,3.6,2.5,5.4c0.9,2,1.8,4,2.7,6c5.8,13,10.5,26.3,11.1,51.8
					c0.1,3.4,0.1,7.1,0,11c-0.4,20.7-3,48.4-9,87.5l-0.1,0.5c-1.6,12.7-0.9,24.9,1,36.2c8.2-3.4,16.2-7.2,24.2-11.1
					c0-0.2,0-0.5-0.1-0.7c-0.1-0.5-0.1-1-0.2-1.5c0-0.1,0-0.3,0-0.4c-0.1-0.7-0.1-1.3-0.2-2c0-0.3,0-0.7-0.1-1
					c0-0.6-0.1-1.2-0.1-1.8c0-0.6,0-1.2,0-1.8c0-0.6,0-1.3,0-1.9c0-0.7,0-1.4,0-2c0-0.4,0-0.8,0-1.2c0-0.7,0.1-1.4,0.1-2.1
					c0-0.3,0-0.7,0.1-1c0.1-1,0.2-2.1,0.3-3.1c0.4-2.8,0.8-5.5,1.2-8.1c2.8-18.9,4.9-34.9,6.4-48.6c0-1.9,2.2-26,2.2-27.9
					c-0.1-10-0.7-19-1.9-28.6c0.2-4.4,0.1-9.2-0.4-14.3c-0.8-7.6-4.3-12.2-10.8-17.2c0-0.1-0.1-0.1-0.1-0.1
					C900.7,265,880.2,249.7,875.9,246.8L875.9,246.8z"/>
				<path class="st0" d="M891.7,472.9c0.2,0.5,0.4,1,0.6,1.5c0.2,0.6,0.5,1.2,0.7,1.8c0.2,0.5,0.4,1.1,0.6,1.6
					c0.2,0.5,0.4,1,0.6,1.6c0.2,0.5,0.4,1,0.6,1.5c0.2,0.5,0.4,1,0.6,1.5c0.5,1.1,1,2.2,1.4,3.2c0.2,0.3,0.3,0.6,0.5,1
					c1.8,3.8,3.4,7,4.9,9.6c0.2,0.3,0.3,0.6,0.5,0.9c0.6,1,1.1,2,1.6,2.8c0.1,0.2,0.3,0.5,0.4,0.7c0.1,0.2,0.3,0.4,0.4,0.6
					c0.2,0.4,0.5,0.7,0.6,1c0.1,0.2,0.2,0.3,0.3,0.5c0.1,0.2,0.3,0.4,0.4,0.6c0.2,0.3,0.3,0.5,0.4,0.6l20.1-18.1
					c0-0.1-1.5-2.4-3.7-6.4c-2.1-4-4.9-9.7-7.5-16.5c-0.1-0.3-0.3-0.6-0.4-1C907.1,465.1,899.2,468.9,891.7,472.9L891.7,472.9z"/>
			</g>
			<path class="st0" d="M854.9,193.6c10,14.9,26,21.5,26.5,23.6c0.9,0,29.2,21.9,34.8,24.6c0.2,0.1,0.3,0.1,0.5,0.2
				c-0.1-0.8-0.3-1.5-0.4-2.3c-2.8-14.1-9.2-25.8-16.2-35.3c-7.1-9.8-14.8-17.1-19.5-22.3c-2.4-2.7-4.1-4.8-4.5-6.4
				c0-0.1,0-0.1,0-0.1c-0.9-3.9,3.7-6.4,5.7-3.1c0,0,0,0,0,0c4.3,6.8,11.2,17.3,19.4,26.9c6.6,7.8,14,15,21.7,19.5
				c3.7,2.2,7.5,3.8,11.3,4.4l-0.1,0.3c54.7,12.9,22.2-50.7,15.3-63.3c-2.9-7.9-11.9-24.6-18.4-33.3c-0.1-0.2-0.3-0.3-0.4-0.5
				c0.2,10.8-0.8,21.8-1.6,32.5c-0.3,3.8,1,21.3-2.4,20.2c-5.6-1.9-14-11.6-21.5-21.3c-0.1-0.1-0.1-0.2-0.2-0.3
				c-1.6-2.1-3.1-4.1-4.6-6.1c-2.6-3.5-4.9-6.7-6.8-9.3c-1.9-2.5-3.4-4.5-4.3-5.4c-5.5-5.7-12.5-7.9-20.2-5
				c-1.7,0.6-3.5,1.6-5.3,2.7c-0.4,0.3-0.7,0.5-1.1,0.8c-4.1,2.9-12.5,11.3-14.5,22.9C845.4,173.4,849.1,184.9,854.9,193.6
				L854.9,193.6z"/>
		</g>
	</g>
</g>
</svg>
