<?xml version="1.0" encoding="utf-8"?>
<!-- Generator: Adobe Illustrator 24.0.1, SVG Export Plug-In . SVG Version: 6.00 Build 0)  -->
<svg version="1.1" id="Layer_1" xmlns="http://www.w3.org/2000/svg" xmlns:xlink="http://www.w3.org/1999/xlink" x="0px" y="0px"
	 viewBox="0 0 167.8 102" style="enable-background:new 0 0 167.8 102;" xml:space="preserve">
<style type="text/css">
	.st0{fill:#FFFFFF;stroke:#000000;stroke-width:0.2999;stroke-miterlimit:2.4994;}
</style>
<path class="st0" d="M11.4,0.2v87.2h144.9V0.2H11.4z M15.6,2.8c0.8,0,1.5,0.7,1.5,1.6c0,0.9-0.7,1.6-1.5,1.6c-0.8,0-1.5-0.7-1.5-1.6
	C14.1,3.5,14.8,2.8,15.6,2.8z M15.6,83.4c-0.8,0-1.5-0.7-1.5-1.6c0-0.9,0.7-1.6,1.5-1.6c0.8,0,1.5,0.7,1.5,1.6
	C17.1,82.7,16.4,83.4,15.6,83.4z M59.1,81.8H21.6c-3.3,0-6-2.6-6-5.9V10.3c0-3.3,2.7-5.9,6-5.9h37.6L59.1,81.8z M105.7,81.8H62.1
	V4.4h43.6L105.7,81.8z M146.2,81.8h-37.5V4.4h37.6c3.3,0,6,2.6,6,5.9v65.6C152.2,79.2,149.5,81.8,146.2,81.8z M152.2,83.4
	c-0.8,0-1.5-0.7-1.5-1.6c0-0.9,0.7-1.6,1.5-1.6c0.8,0,1.5,0.7,1.5,1.6C153.8,82.7,153.1,83.4,152.2,83.4z M152.2,5.9
	c-0.8,0-1.5-0.7-1.5-1.6c0-0.9,0.7-1.6,1.5-1.6c0.8,0,1.5,0.7,1.5,1.6C153.8,5.2,153.1,5.9,152.2,5.9z"/>
</svg>
