<svg xmlns="http://www.w3.org/2000/svg" viewBox="0 0 602.32 131.69"><defs><style>.cls-1{fill:#fff;stroke:#000;stroke-miterlimit:10;stroke-width:0.69px;}</style></defs><title>pAsset 1</title><g id="Layer_2" data-name="Layer 2"><g id="Layer_1-2" data-name="Layer 1"><path class="cls-1" d="M-3959.62-28a12.37,12.37,0,0,1-12.61-12.1,11.58,11.58,0,0,1,.41-3h-574.93a11.59,11.59,0,0,1,.42,3A12.37,12.37,0,0,1-4558.94-28a12.72,12.72,0,0,1-2.06-.18V73.63a12.72,12.72,0,0,1,2.06-.18,12.37,12.37,0,0,1,12.61,12.1,12,12,0,0,1-.24,2.33H-3972a12,12,0,0,1-.24-2.33,12.37,12.37,0,0,1,12.61-12.1h.24V-28Zm-29.82,80.38a8.5,8.5,0,0,1-8.5,8.5,8.51,8.51,0,0,1-8.5-8.5,8.5,8.5,0,0,1,8.5-8.5A8.49,8.49,0,0,1-3989.44,52.38Zm-525,0a8.5,8.5,0,0,1-8.5,8.5,8.51,8.51,0,0,1-8.5-8.5,8.5,8.5,0,0,1,8.5-8.5A8.49,8.49,0,0,1-4514.44,52.38Z" transform="translate(4561.35 43.47)"/></g></g></svg>